<svg width="36" height="36" viewBox="0 0 36 36" fill="none" xmlns="http://www.w3.org/2000/svg">
<circle cx="18" cy="18" r="18" fill="#EFF4FF"/>
<path d="M14.6719 20.3298C14.6719 21.6198 15.6619 22.6598 16.8919 22.6598H19.4019C20.4719 22.6598 21.3419 21.7498 21.3419 20.6298C21.3419 19.4098 20.8119 18.9798 20.0219 18.6998L15.9919 17.2998C15.2019 17.0198 14.6719 16.5898 14.6719 15.3698C14.6719 14.2498 15.5419 13.3398 16.6119 13.3398H19.1219C20.3519 13.3398 21.3419 14.3798 21.3419 15.6698" stroke="#4564ED" stroke-width="1.5" stroke-linecap="round" stroke-linejoin="round"/>
<path d="M18 12V24" stroke="#4564ED" stroke-width="1.5" stroke-linecap="round" stroke-linejoin="round"/>
<path d="M18 28C23.5228 28 28 23.5228 28 18C28 12.4772 23.5228 8 18 8C12.4772 8 8 12.4772 8 18C8 23.5228 12.4772 28 18 28Z" stroke="#4564ED" stroke-width="1.5" stroke-linecap="round" stroke-linejoin="round"/>
</svg>
